<svg width="180" height="48" viewBox="0 0 180 48" fill="none" xmlns="http://www.w3.org/2000/svg">
<path fill-rule="evenodd" clip-rule="evenodd" d="M0 41.4029C0 45.8505 4.2065 49.0219 8.34605 47.6953L34.8273 39.2089C38.5846 38.0048 41.1429 34.4364 41.1429 30.3995V6.59709C41.1429 2.14953 36.9364 -1.02191 32.7968 0.304687L6.31553 8.7911C2.55825 9.99518 0 13.5636 0 17.6005V41.4029ZM20.5714 8.17803C19.1513 8.17803 18 9.35865 18 10.815V37.185C18 38.6414 19.1513 39.822 20.5714 39.822C21.9916 39.822 23.1429 38.6414 23.1429 37.185V10.815C23.1429 9.35865 21.9916 8.17803 20.5714 8.17803Z" fill="white" fill-opacity="0.3"/>
<path d="M46.2857 41.4029C46.2857 45.8505 50.4922 49.0219 54.6318 47.6953L64.2857 44.6015V10.815C64.2857 9.35865 65.437 8.17803 66.8571 8.17803C68.2773 8.17803 69.4286 9.35865 69.4286 10.815V37.5732C69.4286 40.2417 71.9525 42.1446 74.4362 41.3486L86.5264 37.4741C87.0631 37.3021 87.4286 36.7923 87.4286 36.2156V6.59709C87.4286 2.14953 83.2221 -1.02191 79.0825 0.304687L47.1879 10.5259C46.6512 10.6979 46.2857 11.2077 46.2857 11.7844V41.4029Z" fill="white" fill-opacity="0.3"/>
<path d="M100.917 47.6953C96.7779 49.0219 92.5714 45.8505 92.5714 41.4029V17.6005C92.5714 13.5636 95.1297 9.99518 98.887 8.7911L125.368 0.304687C129.508 -1.02191 133.714 2.14953 133.714 6.59709V10.0877C133.714 11.8177 132.618 13.3471 131.008 13.8631L117.384 18.2292C116.556 18.4945 115.714 17.8602 115.714 16.9707V10.815C115.714 9.35865 114.563 8.17803 113.143 8.17803C111.723 8.17803 110.571 9.35865 110.571 10.815V37.185C110.571 38.6414 111.723 39.822 113.143 39.822C114.563 39.822 115.714 38.6414 115.714 37.185V32.1817C115.714 30.4516 116.811 28.9223 118.421 28.4062L132.045 24.0401C132.873 23.7748 133.714 24.4091 133.714 25.2986V30.3995C133.714 34.4364 131.156 38.0048 127.399 39.2089L100.917 47.6953Z" fill="white" fill-opacity="0.3"/>
<path fill-rule="evenodd" clip-rule="evenodd" d="M147.203 47.6953C143.064 49.0219 138.857 45.8505 138.857 41.4029V17.6005C138.857 13.5636 141.415 9.99518 145.173 8.7911L171.654 0.304687C175.794 -1.02191 180 2.14953 180 6.59709V16.7092C180 20.7511 177.435 24.3228 173.672 25.5226L159.569 30.0185C157.956 30.5327 156.857 32.0634 156.857 33.7957V37.185C156.857 38.6414 158.008 39.822 159.429 39.822C160.849 39.822 162 38.6414 162 37.185C162 35.6159 162.994 34.229 164.455 33.7609L178.331 29.3141C179.159 29.0488 180 29.6831 180 30.5726V32.3382C180 35.2217 178.173 37.7706 175.489 38.6306L147.203 47.6953ZM161.999 10.747C161.964 9.32181 160.827 8.17752 159.429 8.17752C158.008 8.17752 156.857 9.35814 156.857 10.8145V25.318C156.857 26.0462 157.442 26.6534 158.13 26.4738C160.355 25.8929 162 23.8248 162 21.3625V10.815M162 10.815C162 10.7924 162 10.7694 161.999 10.747Z" fill="white" fill-opacity="0.3"/>
</svg>
