<svg width="48" height="48" viewBox="0 0 48 48" fill="none" xmlns="http://www.w3.org/2000/svg">
<path d="M22.5643 6.90614C23.0253 5.97227 23.2558 5.50533 23.5687 5.35614C23.8409 5.22634 24.1572 5.22634 24.4294 5.35614C24.7423 5.50533 24.9728 5.97227 25.4338 6.90614L29.8072 15.7661C29.9432 16.0418 30.0113 16.1796 30.1107 16.2867C30.1988 16.3814 30.3044 16.4582 30.4217 16.5128C30.5541 16.5744 30.7063 16.5966 31.0105 16.6411L40.793 18.0709C41.8232 18.2215 42.3382 18.2968 42.5766 18.5484C42.784 18.7673 42.8815 19.0681 42.8421 19.3671C42.7967 19.7107 42.4238 20.0739 41.678 20.8003L34.6019 27.6924C34.3813 27.9072 34.2711 28.0146 34.1999 28.1424C34.1369 28.2556 34.0965 28.3799 34.0809 28.5085C34.0633 28.6538 34.0893 28.8055 34.1413 29.109L35.811 38.8438C35.9871 39.8705 36.0751 40.3839 35.9096 40.6885C35.7657 40.9536 35.5097 41.1395 35.2132 41.1945C34.8723 41.2577 34.4113 41.0152 33.4893 40.5303L24.7438 35.9312C24.4713 35.7879 24.3351 35.7162 24.1915 35.6881C24.0644 35.6632 23.9337 35.6632 23.8066 35.6881C23.6631 35.7162 23.5268 35.7879 23.2543 35.9312L14.5089 40.5303C13.5869 41.0152 13.1258 41.2577 12.785 41.1945C12.4884 41.1395 12.2325 40.9536 12.0885 40.6885C11.923 40.3839 12.0111 39.8705 12.1872 38.8438L13.8568 29.109C13.9089 28.8055 13.9349 28.6538 13.9173 28.5085C13.9017 28.3799 13.8612 28.2556 13.7982 28.1424C13.7271 28.0146 13.6168 27.9072 13.3962 27.6924L6.32014 20.8003C5.57435 20.0739 5.20145 19.7107 5.15608 19.3671C5.1166 19.0681 5.21413 18.7673 5.42152 18.5484C5.65989 18.2968 6.17497 18.2215 7.20511 18.0709L16.9876 16.6411C17.2919 16.5966 17.444 16.5744 17.5765 16.5128C17.6938 16.4582 17.7994 16.3814 17.8874 16.2867C17.9868 16.1796 18.0549 16.0418 18.191 15.7661L22.5643 6.90614Z" fill="#2D3038"/>
</svg>
